<svg xmlns="http://www.w3.org/2000/svg" viewBox="0 0 40 40"><defs><style>.d{fill:none;stroke-miterlimit:10}.c{fill:#005699}.d{stroke:#005699}</style></defs><path d="M24.07 13.57v2.79H20c-1 0-2.7.55-2.68 4.75 0 2.49 1.4 3.95 2.76 3.95h3.12v-2.7h-2.87v-2.63H26v8.1h-6.41a5 5 0 0 1-3.34-1.22 6.76 6.76 0 0 1-1.88-3 10 10 0 0 1-.45-3.61 7.6 7.6 0 0 1 1.83-4.76 5.3 5.3 0 0 1 4.11-1.68z" fill-rule="evenodd" fill="#005799"/><path d="M22.11 8.19A12.26 12.26 0 0 0 20 8a13.1 13.1 0 1 0 12.8 10.82" stroke="#005799" stroke-width="2" fill="none" stroke-miterlimit="10" fill-rule="evenodd"/><circle class="c" cx="26.34" cy="9.98" r="2.34"/><circle class="c" cx="34.66" cy="6.34" r="2.34"/><circle class="c" cx="34.66" cy="13.62" r="2.34"/><path class="d" d="M34.4 6.6l-8.32 3.64M34.4 13.36l-8.32-3.64"/></svg>