<svg clip-rule="evenodd" fill-rule="evenodd" stroke-linejoin="round" stroke-miterlimit="2" viewBox="0 0 350 230" xmlns="http://www.w3.org/2000/svg"><g fill="#d9d9d9" fill-rule="nonzero"><path d="m280 50h-52.42l-16-20h-82l-9.33 11 30.22 30.22c6.361-2.664 13.189-4.036 20.086-4.036 28.526 0 52 23.474 52 52 0 6.897-1.372 13.725-4.036 20.086l60.77 60.73h.71c2.743 0 5-2.257 5-5v-140c0-2.743-2.257-5-5-5zm-109.43 121.15c-28.517-.014-51.975-23.483-51.975-52 0-7.401 1.58-14.718 4.635-21.46l-47.68-47.69h-15.55c-2.743 0-5 2.257-5 5v140c0 2.743 2.257 5 5 5h165.55l-33.55-33.5c-6.729 3.062-14.037 4.648-21.43 4.65z"/><path d="m170.83 154.67c-.005 0-.01 0-.016 0-19.2 0-35-15.8-35-35 0-2.821.341-5.631 1.016-8.37l-5.62-5.62c-1.583 4.488-2.392 9.213-2.392 13.972 0 23.041 18.959 42 42 42 4.759 0 9.484-.809 13.972-2.392l-5.62-5.62c-2.728.678-5.529 1.023-8.34 1.03zm0-70c19.199.002 34.997 15.801 34.997 35 0 2.123-.193 4.242-.577 6.33l5.8 5.8c1.178-3.921 1.777-7.993 1.777-12.087 0-23.04-18.96-42-42-42-4.094 0-8.166.599-12.087 1.777l5.8 5.8c2.074-.396 4.179-.603 6.29-.62z"/></g></svg>