<svg xmlns="http://www.w3.org/2000/svg" viewBox="3 3 34 34"><defs><style>.a{fill:#606161;}.b{fill:#005699;}</style></defs><path class="a" d="M16.48 4.5h7.1a.54.54 0 0 0 .12.06 3.13 3.13 0 0 1 2.41 2c.39 1 .81 1.91 1.19 2.87a.5.5 0 0 0 .54.37h5.59a2.94 2.94 0 0 1 .39 0 .65.65 0 0 1 .63.69v1.08c0 .65-.21.85-.86.85h-1.76v19.14a6.77 6.77 0 0 1-.17 1.63A3.43 3.43 0 0 1 28 36H11.37a2.62 2.62 0 0 1-1.77-.76 4.34 4.34 0 0 1-1.36-3.31V12.4H6.46a.8.8 0 0 1-.88-.52v-1.57a.85.85 0 0 1 .93-.55h5.73a.45.45 0 0 0 .5-.33c.4-1 .83-2 1.25-3a2.47 2.47 0 0 1 1-1.26 15.94 15.94 0 0 1 1.49-.67zm-5.61 7.91v19.08a2.36 2.36 0 0 0 0 .54 7.32 7.32 0 0 0 .31 1 .55.55 0 0 0 .57.33H28.3a.61.61 0 0 0 .58-.33 2.67 2.67 0 0 0 .32-1.41V12.4zM24.6 9.75c-.33-.8-.62-1.57-1-2.31a.64.64 0 0 0-.49-.27h-6.2a.62.62 0 0 0-.48.24c-.36.76-.67 1.54-1 2.35z"/><path class="b" d="M21.35 22.9v5.69c0 .65-.2.85-.86.85h-1a.66.66 0 0 1-.74-.75v-11.5c0-.67.2-.87.88-.87h1c.53 0 .76.23.76.76q-.03 2.92-.04 5.82z"/><path class="b" d="M13.47 22.86v-5.69c0-.63.2-.83.84-.83h1.11a.64.64 0 0 1 .69.66v11.53c0 .74-.19.92-.94.92h-.82c-.68 0-.88-.19-.88-.86v-5.73z"/><path class="b" d="M26.59 22.88v5.77c0 .59-.21.8-.79.81h-1.15a.65.65 0 0 1-.7-.66V17.27c0-.74.18-.92.93-.92h1c.52 0 .74.22.74.74q-.03 2.91-.03 5.79z"/></svg>
