<svg xmlns="http://www.w3.org/2000/svg" viewBox="0 0 40 40" width="100%" height="100%"><g transform="scale(1.2 1.15) translate(-4 -1)"><path d="M20.5 4.5c-4 0-7 4-7 4a12.1 12.1 0 0 0-1 5v11.3a3.2 3.2 0 0 1-.3 1.4l-2 4a1 1 0 0 0 .8 1.3h19.7a1 1 0 0 0 .8-1.5L29 26.3a3.2 3.2 0 0 1-.5-1.8v-11a13.4 13.4 0 0 0-1-5c-.4-1-4-4-7-4z" stroke="#005699" stroke-miterlimit="10" stroke-width="3" fill="#FFFFFF"/><path d="M24.5 31.5a4 4 0 0 1-8 0" fill="#005699"/></g><g aria-label="!" transform="translate(-2 0) scale(1.1 1)" style="font-style:normal;font-weight:bold;font-size:26.32044792px;line-height:1.25;font-family:sans-serif;letter-spacing:0px;word-spacing:0px;fill:#005699;fill-opacity:1;stroke:none;stroke-width:1" id="text3688"> <path d="m 34.509735,18.600054 h 2.608911 v 3.264353 h -2.608911 z m 0,-15.9233568 h 2.608911 V 11.094614 L 36.861611,15.6827 h -2.081989 l -0.269887,-4.588086 z" style="stroke-width:1" id="path11" /></g></svg>
