<svg
  clip-rule="evenodd"
  fill-rule="evenodd"
  stroke-linejoin="round"
  stroke-miterlimit="2"
  viewBox="0 0 17 13"
  xmlns="http://www.w3.org/2000/svg"
  fill="#a6a6a6"
  >
  <path d="m-4-5h24v24h-24z" fill="none"/><path d="m1 6h3c.55 0 1-.45 1-1v-4c0-.55-.45-1-1-1h-3c-.55 0-1 .45-1 1v4c0 .55.45 1 1 1zm0 7h3c.55 0 1-.45 1-1v-4c0-.55-.45-1-1-1h-3c-.55 0-1 .45-1 1v4c0 .55.45 1 1 1zm6 0h3c.55 0 1-.45 1-1v-4c0-.55-.45-1-1-1h-3c-.55 0-1 .45-1 1v4c0 .55.45 1 1 1zm6 0h3c.55 0 1-.45 1-1v-4c0-.55-.45-1-1-1h-3c-.55 0-1 .45-1 1v4c0 .55.45 1 1 1zm-6-7h3c.55 0 1-.45 1-1v-4c0-.55-.45-1-1-1h-3c-.55 0-1 .45-1 1v4c0 .55.45 1 1 1zm5-5v4c0 .55.45 1 1 1h3c.55 0 1-.45 1-1v-4c0-.55-.45-1-1-1h-3c-.55 0-1 .45-1 1z" fill-rule="nonzero"/>
</svg>